<?xml version="1.0"?>
<svg xmlns="http://www.w3.org/2000/svg" xmlns:xlink="http://www.w3.org/1999/xlink" version="1.1" id="Capa_1" x="0px" y="0px" width="512px" height="512px" viewBox="0 0 612.015 612.015" style="enable-background:new 0 0 612.015 612.015;" xml:space="preserve"><g><g>
	<g id="_x31__20_">
		<g>
			<path d="M595.418,54.357c-22.128-21.841-58.008-21.841-80.117,0l-328.559,324.37c-40.24-0.898-95.934,13.35-119.975,92.09     C48.388,512.492,0,510.389,0,510.389c100.467,111.464,218.874,48.292,245.917,20.904c23.754-24.079,27.177-53.514,24.634-77.058     l324.867-320.774C617.547,111.62,617.547,76.199,595.418,54.357z M219.198,504.919c-18.819,17.461-102.934,56.382-152.431,18.647     c0,0,17.232-13.445,30.276-40.432c31.155-82.757,108.805-70.517,108.805-70.517l26.7,26.374     C232.816,439.241,252.496,474.05,219.198,504.919z M259.267,412.618c-2.467-2.429-26.699-26.374-26.699-26.374l40.068-39.552     l26.7,26.374L259.267,412.618z M568.699,107.087L326.034,346.692l-26.699-26.374L542,80.732c7.383-7.287,19.336-7.287,26.699,0     C576.082,88,576.082,99.819,568.699,107.087z" data-original="#000000" class="active-path" data-old_color="#0b75c1" fill="#0b75c1"/>
		</g>
	</g>
</g></g> </svg>
